<svg width="12" height="12" viewBox="0 0 12 12" fill="none" xmlns="http://www.w3.org/2000/svg">
<g clip-path="url(#clip0_866_7269)">
<path d="M11.1811 2.54586C11.2686 2.45533 11.3883 2.40308 11.5142 2.40049C11.6401 2.39791 11.7619 2.4452 11.8531 2.53206C11.8982 2.57503 11.9343 2.6265 11.9595 2.68349C11.9846 2.74048 11.9982 2.80189 11.9996 2.86416C12.0009 2.92644 11.9899 2.98837 11.9673 3.04639C11.9446 3.10441 11.9107 3.15738 11.8675 3.20226L5.27228 10.0543C5.22817 10.1 5.17537 10.1365 5.11697 10.1616C5.05857 10.1866 4.99574 10.1998 4.93219 10.2002C4.86864 10.2007 4.80563 10.1884 4.74689 10.1642C4.68814 10.1399 4.63482 10.1042 4.59008 10.0591L0.136879 5.55726C0.0930544 5.51301 0.0584031 5.46054 0.0349154 5.40286C0.0114276 5.34519 -0.000433891 5.28344 1.21266e-05 5.22116C0.000458145 5.15888 0.0132029 5.09731 0.0375144 5.03998C0.0618259 4.98264 0.0972251 4.93067 0.141679 4.88706C0.23171 4.79866 0.353099 4.74953 0.47927 4.75043C0.605442 4.75133 0.726117 4.80218 0.814879 4.89186L4.92428 9.04626L11.1811 2.54586Z" fill='current'/>
</g>
<defs>
<clipPath id="clip0_866_7269">
<rect width="12" height="12" fill="white"/>
</clipPath>
</defs>
</svg>
