<svg width="16" height="14" viewBox="0 0 16 14" fill="none" xmlns="http://www.w3.org/2000/svg">
<path d="M3.94844 14C1.82844 14 0.668438 12.32 0.668438 9.36C0.668438 5.56 2.46844 2.76 5.98844 0.879998L7.14844 2.96C4.74844 4.4 3.54844 6.04 3.54844 8.56C3.66844 8.52 3.82844 8.52 3.94844 8.52C5.38844 8.52 6.66844 9.48 6.66844 11.16C6.66844 12.92 5.54844 14 3.94844 14ZM12.7084 14C10.6284 14 9.46844 12.32 9.46844 9.36C9.46844 5.56 11.2684 2.76 14.7484 0.879998L15.9484 2.96C13.5484 4.4 12.3484 6.04 12.3484 8.56C12.4684 8.52 12.5884 8.52 12.7084 8.52C14.1884 8.52 15.4684 9.48 15.4684 11.16C15.4684 12.92 14.3084 14 12.7084 14Z" fill="#ACD1AD"/>
</svg>
