<svg width="16" height="14" viewBox="0 0 16 14" fill="none" xmlns="http://www.w3.org/2000/svg">
<path d="M1.26844 13.72L0.0684378 11.64C2.46844 10.16 3.70844 8.56 3.70844 6C3.54844 6.04 3.42844 6.04 3.26844 6.04C1.82844 6.04 0.588438 5.08 0.588438 3.44C0.588438 1.68 1.70844 0.599999 3.26844 0.599999C5.38844 0.599999 6.54844 2.28 6.54844 5.2C6.54844 9 4.74844 11.8 1.26844 13.72ZM10.0684 13.72L8.86844 11.64C11.2684 10.16 12.5084 8.56 12.5084 6C12.3484 6.04 12.2284 6.04 12.0684 6.04C10.6284 6.04 9.34844 5.08 9.34844 3.44C9.34844 1.68 10.5084 0.599999 12.0684 0.599999C14.1884 0.599999 15.3484 2.28 15.3484 5.2C15.3484 9 13.5484 11.8 10.0684 13.72Z" fill="#ACD1AD"/>
</svg>
