<svg width="24" height="24" viewBox="0 0 24 24" fill="none" xmlns="http://www.w3.org/2000/svg">
<path d="M17.5927 23.707L13.5752 24L10.6038 23.9968L5.76866 23.6327C5.28512 23.5796 4.84706 23.5413 4.42364 23.2571L4.28076 23.1567C3.29227 22.3841 3.47573 21.4092 3.6372 20.3593L4.29163 15.637C4.39142 14.5337 4.4011 13.0264 4.26116 11.9353L4.13951 10.9876C4.07436 10.9662 3.99449 10.9716 3.92626 10.9684C2.99057 10.9239 1.47796 10.7092 0.684129 10.1526L0.574949 10.0656C0.0180335 9.55352 -0.0419736 9.11597 0.0191569 8.42427L0.167472 6.84483C0.184612 6.6313 0.18838 6.41583 0.21755 6.20344C0.539364 3.86244 1.75259 2.75344 3.62209 1.66642L4.91279 0.907572C5.85403 0.356183 6.10971 0.0492502 7.23423 0.0117792C7.66889 0.00914714 8.57856 -0.0659045 8.94661 0.198951C9.0717 0.288954 9.16896 0.4127 9.30629 0.48691C11.0007 1.40226 12.9045 1.39619 14.6226 0.506688C14.9484 0.338014 15.0718 0.167512 15.4504 0.0806527L15.6083 0.0465083C15.8718 0.000409913 16.1528 0.00914685 16.4197 0.00976832C17.4792 0.0121811 17.7439 0.0561225 18.638 0.606488L19.7353 1.28696C20.2916 1.62486 20.8725 1.9244 21.4052 2.30094C22.6966 3.21366 23.5798 4.58733 23.7575 6.17986L23.9032 7.81026C23.9222 8.02533 23.9246 8.25512 23.9643 8.46639C24.3105 10.3105 22.0595 10.7435 20.7163 10.9033C20.6164 10.9152 20.5207 10.9448 20.4197 10.9532C19.6881 11.0141 19.887 10.7622 19.7867 11.4531C19.6638 12.3003 19.65 12.8007 19.6508 13.6612L19.6631 15.2013L20.0341 18.4592L20.3297 20.3419C20.4933 21.2812 20.6545 22.153 19.9557 22.9329C19.3393 23.6209 18.4486 23.6611 17.5927 23.707ZM7.41737 1.10856L6.99239 1.12669C6.98239 1.27395 7.04276 1.4201 7.06646 1.56589L7.0844 1.64595C7.11099 1.74535 7.11889 1.84822 7.14042 1.94864L7.25126 2.46439C7.26985 2.55644 7.27674 2.64856 7.30884 2.73707L7.43114 3.19597C7.43698 3.22177 7.4452 3.24378 7.4543 3.26839L7.57793 3.66788L8.28469 5.40949C8.96524 6.81281 9.16755 6.89678 10.3132 6.07881L11.2018 5.39567C10.0888 4.57259 9.10638 3.40178 8.63665 2.07944L8.41409 1.36676C8.40198 1.32056 8.38854 1.12706 8.34227 1.12523L7.41737 1.10856ZM16.0256 1.10929L15.7062 1.13017C15.2326 2.65898 14.8348 3.55719 13.6308 4.73626L13.0686 5.23453C12.9999 5.29021 12.9088 5.33371 12.849 5.39688C13.2296 5.71211 13.5627 6.05615 13.9946 6.30682C15.9388 7.42923 16.8825 2.5507 16.9412 1.11946L16.0256 1.10929ZM17.9852 1.515C17.9315 1.9266 17.9103 2.33424 17.8351 2.74504C17.5253 4.43496 16.6633 7.35827 14.771 7.59655L14.7387 7.60101C14.2099 7.66645 13.1305 7.18664 12.7989 6.77281C12.776 7.0025 12.7856 7.23694 12.7858 7.46758L12.7875 8.51812C12.7879 8.67381 12.8174 8.88434 12.7847 9.03244C12.6657 9.57187 11.8078 9.5242 11.7249 8.95223C11.6975 8.76272 11.7178 8.54396 11.7177 8.35141L11.7173 7.02904C11.7172 6.8105 11.7314 6.58096 11.7114 6.36367L11.6876 6.38746C11.6433 6.43064 11.5886 6.45795 11.5413 6.49772L11.1655 6.80721C10.6419 7.21347 10.0163 7.72256 9.31843 7.70081C7.78829 7.6531 7.03751 5.433 6.62517 4.21108C6.49164 3.81531 6.36315 3.41341 6.26923 3.0058L6.08576 2.17705C6.04561 1.96787 6.0355 1.7323 5.95545 1.53467L4.0553 2.68095C2.2395 3.77397 1.40592 4.61664 1.23655 6.92544L1.07802 8.60797C1.06649 8.71786 1.04135 8.82647 1.07501 8.93377L1.08171 8.95771C1.2817 9.62572 3.46686 9.84192 4.1232 9.88743C4.20811 9.068 4.22854 8.29318 4.07396 7.48556C3.93423 6.75578 4.6145 6.38224 4.92471 6.83404C5.34342 7.44389 5.32226 9.26446 5.19812 9.92033C5.14126 10.2208 5.17391 10.5905 5.21363 10.8919L5.39676 12.3267C5.43409 12.6866 5.42503 13.0587 5.42717 13.4206L5.4184 14.886C5.41695 14.9351 5.4072 14.991 5.42753 15.0359C5.35716 16.4053 5.14412 17.7921 4.91732 19.1418L4.70976 20.4627C4.64877 20.8409 4.47114 21.5064 4.63537 21.8681L4.64649 21.8932C4.93334 22.5308 5.58777 22.5071 6.17255 22.5511L8.38564 22.75L11.0736 22.9L13.2581 22.894L18.0521 22.5567C19.231 22.448 19.5009 22.1554 19.3271 20.8902L18.6572 16.0208C18.5933 15.316 18.5776 14.7835 18.5766 14.0683C18.5755 13.27 18.5529 12.6162 18.6502 11.824L18.7829 10.8277C18.8524 10.44 18.7809 10.0273 18.7495 9.63979C18.6838 8.8294 18.6317 7.90348 18.8872 7.11601L18.8955 7.08991C19.0609 6.58615 19.7153 6.48288 19.8902 7.05339L19.9002 7.0838C19.9779 7.33133 19.8633 7.66901 19.8107 7.91712C19.7627 8.14388 19.778 8.3887 19.7785 8.61985L19.8021 9.37457C19.8117 9.52691 19.8177 9.6784 19.857 9.82675L19.8709 9.87888C20.4726 9.80521 21.1206 9.77465 21.7062 9.61212C22.6137 9.3602 23.0149 9.34529 22.8816 8.3531L22.8255 7.81037C22.7528 7.08782 22.7639 6.29212 22.54 5.5956C22.1121 4.26475 21.3284 3.51412 20.1879 2.83222L18.3572 1.73266C18.2885 1.6892 18.0628 1.49694 17.9852 1.515ZM14.3086 1.82574C13.2328 2.39972 11.4892 2.43942 10.3467 2.08379L9.69428 1.83144C9.88647 2.35636 10.25 2.90048 10.5986 3.32622C11.1089 3.91694 11.4628 4.19584 12.0508 4.70036C12.2617 4.47056 12.5037 4.29235 12.7313 4.08269C13.317 3.54326 13.8471 2.89828 14.1919 2.17303L14.3086 1.82574Z" fill="white"/>
</svg>
