<svg width="34" height="30" viewBox="0 0 34 30" fill="none" xmlns="http://www.w3.org/2000/svg">
<path d="M20.9997 14.6665C18.9746 14.6665 17.333 16.3081 17.333 18.3332C17.333 21.9998 21.6663 25.3332 23.9997 26.1086C26.333 25.3332 30.6663 21.9998 30.6663 18.3332C30.6663 16.3081 29.0247 14.6665 26.9997 14.6665C25.7596 14.6665 24.6633 15.2821 23.9997 16.2245C23.3361 15.2821 22.2398 14.6665 20.9997 14.6665Z" stroke="#646464" stroke-width="2" stroke-linecap="round" stroke-linejoin="round"/>
<path d="M13 19C12.6959 19 8.67094 19 4.99972 19C2.79058 19 1 20.7909 1 23V23" stroke="#646464" stroke-width="2" stroke-linecap="round"/>
<path d="M7.5 1.5V18.5" stroke="#646464" stroke-width="2" stroke-linecap="round"/>
<path d="M13 27H5C2.79086 27 1 25.2091 1 23V5C1 2.79086 2.79086 1 5 1H13" stroke="#646464" stroke-width="2" stroke-linecap="round"/>
<path d="M13 1H22C23.1046 1 24 1.89543 24 3V8.5" stroke="#646464" stroke-width="2" stroke-linecap="round"/>
</svg>
