<svg width="32" height="32" viewBox="0 0 32 32" fill="none" xmlns="http://www.w3.org/2000/svg">
<path d="M12.0753 28V14.3653C12.0753 13.813 12.523 13.3653 13.0753 13.3653H19.153C19.7052 13.3653 20.153 13.813 20.153 14.3653V28M12.0753 28L12.0773 21.907C12.0775 21.3546 11.6297 20.9067 11.0773 20.9067H5C4.44772 20.9067 4 21.3544 4 21.9067V27C4 27.5523 4.44771 28 5 28H12.0753ZM12.0753 28H20.153M20.153 28V5C20.153 4.44772 20.6007 4 21.153 4H27C27.5523 4 28 4.44772 28 5V27C28 27.5523 27.5523 28 27 28H20.153Z" stroke="black" stroke-width="2" stroke-linecap="round" stroke-linejoin="round"/>
</svg>
